#!OML:ASF I:\Actors\actors\Patient Classification 2\Patient 1\Session 1\actor1.ASF
:FULLY-SPECIFIED
:DEGREES
491
root -0.715921 18.7141 4.85048 1.56199 -1.03025 -2.08587
lowerback 1.8852 1.57807 -2.85829
upperback -4.47775 2.00111 0.490015
thorax -5.81882 1.13406 1.96946
lowerneck -6.64651 -3.68981 -2.8174
upperneck 24.5612 -5.62585 3.66362
head 8.94218 -2.53943 1.17946
rclavicle -1.11319e-014 5.1684e-015
rhumerus -34.9491 22.9568 -89.0656
rradius 99.0112
rwrist -12.6783
rhand -11.0353 -44.2275
rfingers 7.12502
rthumb 14.9865 -73.6652
lclavicle -1.11319e-014 5.1684e-015
lhumerus -49.2969 2.20347 83.6165
lradius 45.7115
lwrist -1.77955
lhand -9.60963 -33.1858
lfingers 7.12502
lthumb 16.3595 -3.85575
rfemur 7.21292 0.520547 16.2104
rtibia 1.74931e-014
rfoot -16.2087 -9.89606
rtoes -2.75112
lfemur -3.90524 -6.437 -12.5196
ltibia 21.329
lfoot -21.9261 10.7613
ltoes -55.9938
492
root -0.716142 18.7157 4.85574 1.6637 -0.916307 -2.07908
lowerback 1.89999 1.54342 -2.88048
upperback -4.45782 1.95527 0.525083
thorax -5.80581 1.11287 2.02162
lowerneck -6.91703 -3.63081 -2.94486
upperneck 24.244 -5.49626 3.6377
head 8.88073 -2.49175 1.20011
rclavicle -7.00716e-015 7.15625e-015
rhumerus -36.4664 22.0299 -90.1453
rradius 96.9269
rwrist -11.4648
rhand -11.9829 -43.2159
rfingers 7.12502
rthumb 14.0735 -72.7194
lclavicle -7.00716e-015 7.15625e-015
lhumerus -48.9953 2.83357 83.5598
lradius 45.033
lwrist -1.90297
lhand -10.1579 -33.5809
lfingers 7.12502
lthumb 15.8316 -4.20817
rfemur 7.14512 0.400077 16.206
rtibia -2.06736e-014
rfoot -16.2313 -9.88438
rtoes -2.70202
lfemur -4.03444 -6.48837 -12.5018
ltibia 21.3418
lfoot -21.8795 10.7374
ltoes -55.9686
493
root -0.71553 18.717 4.85906 1.74925 -0.861494 -2.03714
lowerback 2.01267 1.53327 -2.89097
upperback -4.46258 1.93829 0.533279
thorax -5.87529 1.10603 2.0342
lowerneck -7.24118 -3.57404 -3.10088
upperneck 23.9654 -5.38732 3.70288
head 8.84704 -2.44575 1.25345
rclavicle -1.49089e-015 3.97569e-015
rhumerus -38.2058 20.7556 -91.2799
rradius 94.9947
rwrist -10.3816
rhand -17.2696 -38.4379
rfingers 7.12502
rthumb 8.97516 -68.2269
lclavicle -1.49089e-015 3.97569e-015
lhumerus -48.8098 3.21305 83.6168
lradius 44.5219
lwrist -1.80486
lhand -10.6706 -33.7092
lfingers 7.12502
lthumb 15.3378 -4.29799
rfemur 7.07249 0.33885 16.1582
rtibia 1.27222e-014
rfoot -16.2227 -9.89372
rtoes -2.67644
lfemur -4.15296 -6.54471 -12.5417
ltibia 21.3827
lfoot -21.8721 10.7455
ltoes -55.936
494
root -0.71368 18.7191 4.86304 1.87221 -0.728132 -1.9928
lowerback 2.10383 1.48517 -2.85197
upperback -4.49703 1.87168 0.509548
thorax -5.95766 1.07205 1.98981
lowerneck -7.64803 -3.48222 -3.14028
upperneck 23.7912 -5.24538 3.74689
head 8.85949 -2.37367 1.28201
rclavicle -6.11263e-015 -2.38542e-015
rhumerus -39.8232 19.2706 -92.2756
rradius 92.9852
rwrist -8.95871
rhand -19.798 -35.7715
rfingers 7.12502
rthumb 6.53484 -65.6507
lclavicle -6.11263e-015 -2.38542e-015
lhumerus -48.7873 3.32437 83.7528
lradius 44.2776
lwrist -1.51716
lhand -11.0982 -33.6659
lfingers 7.12502
lthumb 14.9259 -4.22368
rfemur 6.97622 0.196945 16.1038
rtibia 2.54444e-014
rfoot -16.2369 -9.86914
rtoes -2.56993
lfemur -4.35817 -6.64746 -12.5772
ltibia 21.479
lfoot -21.907 10.6922
ltoes -55.8826
495
root -0.711396 18.7243 4.86909 2.18221 -0.822904 -2.31719
lowerback 1.87379 1.47699 -2.46687
upperback -4.53454 1.89017 0.596526
thorax -5.85439 1.0653 1.86863
lowerneck -8.10797 -3.3738 -3.07501
upperneck 23.6611 -5.0809 3.71511
head 8.89122 -2.28839 1.26906
rclavicle -6.55989e-015 -3.97569e-016
rhumerus -41.1398 17.8549 -93.0437
rradius 90.8297
rwrist -7.43519
rhand -21.4368 -34.2809
rfingers 7.12502
rthumb 4.95256 -64.203
lclavicle -6.55989e-015 -3.97569e-016
lhumerus -48.8117 3.32752 83.9321
lradius 44.214
lwrist -1.14127
lhand -11.4855 -33.7258
lfingers 7.12502
lthumb 14.5527 -4.2563
rfemur 6.64853 0.281152 16.4603
rtibia 0
rfoot -16.2168 -9.89245
rtoes -2.64843
lfemur -4.66982 -6.78454 -12.214
ltibia 21.5545
lfoot -22.0905 10.861
ltoes -55.7475
496
root -0.687806 18.7318 4.86232 2.55337 -1.39247 -2.6682
lowerback 1.77211 1.61087 -1.78831
upperback -4.61416 2.10698 0.663909
thorax -5.86622 1.14442 1.54484
lowerneck -8.61148 -3.26913 -3.07449
upperneck 23.5896 -4.91277 3.68482
head 8.95328 -2.20602 1.26779
rclavicle 2.5842e-015 2.38542e-015
rhumerus -42.2467 16.5063 -93.5139
rradius 88.963
rwrist -6.87017
rhand -22.3386 -33.6273
rfingers 7.12502
rthumb 4.0818 -63.5679
lclavicle 2.5842e-015 2.38542e-015
lhumerus -48.8274 3.36126 84.1404
lradius 44.1501
lwrist -0.881153
lhand -11.8243 -33.8898
lfingers 7.12502
lthumb 14.2263 -4.39704
rfemur 6.05681 0.843183 16.7415
rtibia -2.54444e-014
rfoot -16.0176 -10.0827
rtoes -3.18031
lfemur -4.95553 -7.14186 -11.9991
ltibia 21.586
lfoot -22.4767 11.69
ltoes -55.577
